<svg xmlns="http://www.w3.org/2000/svg" xmlns:xlink="http://www.w3.org/1999/xlink" width="24" height="24" viewBox="0 0 24 24"><defs><path id="a" d="M20.25 9.25V6c0-.69-.56-1.25-1.25-1.25h-2.25V6a.75.75 0 1 1-1.5 0V4.75h-6.5V6a.75.75 0 0 1-1.5 0V4.75H5c-.69 0-1.25.56-1.25 1.25v3.25h16.5zm0 1.5H3.75V20c0 .69.56 1.25 1.25 1.25h14c.69 0 1.25-.56 1.25-1.25v-9.25zm-11.5-7.5h6.5V2a.75.75 0 1 1 1.5 0v1.25H19A2.75 2.75 0 0 1 21.75 6v14A2.75 2.75 0 0 1 19 22.75H5A2.75 2.75 0 0 1 2.25 20V6A2.75 2.75 0 0 1 5 3.25h2.25V2a.75.75 0 0 1 1.5 0v1.25z"/></defs><g fill="none" fill-rule="evenodd"><mask id="b" fill="#fff"><use xlink:href="#a"/></mask><g fill="#FB7B4C" fill-rule="nonzero" mask="url(#b)"><path d="M0 0h24v24H0z"/></g></g></svg>