<svg xmlns="http://www.w3.org/2000/svg" width="124" height="37" viewBox="0 0 124 37"><g fill="none" fill-rule="evenodd"><path fill="#A6A6A6" d="M119.709 37H5.312C2.935 37 1 35.032 1 32.622V4.372C1 1.96 2.935 0 5.312 0h114.397c2.376 0 4.38 1.961 4.38 4.372v28.25c0 2.41-2.004 4.378-4.38 4.378z"/><path fill="#000" d="M123.206 32.623c0 1.957-1.563 3.543-3.496 3.543H5.312c-1.932 0-3.5-1.586-3.5-3.543V4.37c0-1.957 1.568-3.548 3.5-3.548h114.397c1.934 0 3.496 1.591 3.496 3.548v28.252z"/><path d="M28.47 18.3c-.027-2.981 2.406-4.431 2.517-4.499-1.378-2.038-3.513-2.316-4.263-2.338-1.794-.192-3.533 1.088-4.447 1.088-.932 0-2.339-1.07-3.855-1.038-1.951.03-3.777 1.176-4.778 2.956-2.066 3.629-.525 8.961 1.455 11.894.99 1.437 2.147 3.04 3.661 2.984 1.482-.062 2.035-.958 3.823-.958 1.772 0 2.292.958 3.836.922 1.59-.026 2.591-1.443 3.547-2.892 1.144-1.647 1.604-3.268 1.622-3.351-.038-.013-3.088-1.195-3.118-4.768zm-2.918-8.767c.797-1.011 1.342-2.386 1.19-3.782-1.153.052-2.595.81-3.426 1.798-.735.871-1.391 2.3-1.221 3.643 1.295.098 2.625-.664 3.457-1.659zm24.36 19.608H47.84l-1.134-3.616h-3.943l-1.08 3.616h-2.016l3.906-12.31h2.412l3.926 12.31zm-3.547-5.133l-1.026-3.214c-.108-.328-.312-1.102-.612-2.319h-.036c-.12.524-.312 1.297-.576 2.319l-1.008 3.214h3.258zm13.592.586c0 1.51-.403 2.703-1.207 3.579-.72.78-1.614 1.169-2.682 1.169-1.153 0-1.98-.42-2.485-1.26h-.036v4.676h-1.944v-9.571c0-.95-.025-1.923-.072-2.922h1.71l.108 1.407h.036c.649-1.06 1.633-1.59 2.953-1.59 1.032 0 1.893.414 2.583 1.242.69.829 1.036 1.918 1.036 3.27zm-1.98.072c0-.864-.192-1.576-.577-2.137-.42-.584-.985-.877-1.692-.877-.48 0-.916.163-1.305.484a2.25 2.25 0 0 0-.765 1.27c-.06.244-.09.444-.09.601v1.48c0 .646.195 1.19.585 1.636.39.445.897.667 1.52.667.733 0 1.303-.287 1.71-.859.409-.572.613-1.327.613-2.265zm12.043-.072c0 1.51-.402 2.703-1.207 3.579-.72.78-1.614 1.169-2.682 1.169-1.152 0-1.98-.42-2.484-1.26h-.036v4.676h-1.944v-9.571c0-.95-.025-1.923-.072-2.922h1.71l.108 1.407h.037c.647-1.06 1.63-1.59 2.952-1.59 1.031 0 1.893.414 2.584 1.242.688.829 1.034 1.918 1.034 3.27zm-1.98.072c0-.864-.193-1.576-.578-2.137-.42-.584-.983-.877-1.691-.877-.48 0-.916.163-1.306.484-.39.324-.644.747-.764 1.27-.06.244-.09.444-.09.601v1.48c0 .646.195 1.19.583 1.636.39.444.898.667 1.523.667.732 0 1.302-.287 1.71-.859.408-.572.612-1.327.612-2.265zm13.23 1.024c0 1.046-.357 1.898-1.077 2.556-.79.719-1.89 1.077-3.305 1.077-1.306 0-2.352-.255-3.145-.766l.45-1.644c.854.523 1.79.786 2.81.786.733 0 1.303-.168 1.712-.503.408-.335.611-.784.611-1.345 0-.5-.168-.92-.504-1.262-.335-.341-.894-.658-1.674-.952-2.125-.803-3.186-1.98-3.186-3.53 0-1.011.372-1.841 1.117-2.487.742-.646 1.732-.97 2.97-.97 1.105 0 2.022.196 2.754.586l-.486 1.607c-.684-.377-1.457-.566-2.322-.566-.684 0-1.218.171-1.601.512a1.471 1.471 0 0 0-.486 1.114c0 .487.185.89.557 1.205.324.293.912.61 1.765.95 1.044.427 1.81.925 2.304 1.497.492.57.737 1.283.737 2.134zm6.428-3.945h-2.143v4.31c0 1.096.378 1.643 1.134 1.643.348 0 .636-.03.864-.091l.054 1.497c-.383.145-.887.218-1.512.218-.768 0-1.368-.237-1.8-.712-.432-.475-.649-1.273-.649-2.393v-4.474H82.37v-1.48h1.276v-1.625l1.91-.585v2.21h2.142v1.482zm9.667 2.885c0 1.364-.384 2.485-1.152 3.36-.805.902-1.874 1.352-3.206 1.352-1.284 0-2.306-.432-3.068-1.296-.762-.864-1.143-1.955-1.143-3.269 0-1.375.392-2.502 1.179-3.378.785-.877 1.844-1.315 3.176-1.315 1.284 0 2.317.432 3.097 1.296.745.84 1.117 1.923 1.117 3.25zm-2.016.064c0-.819-.173-1.52-.522-2.106-.408-.709-.99-1.062-1.745-1.062-.782 0-1.375.354-1.783 1.062-.349.586-.521 1.3-.521 2.143 0 .818.172 1.52.521 2.105.42.709 1.008 1.062 1.766 1.062.742 0 1.324-.36 1.745-1.08.358-.597.539-1.306.539-2.124zM103.684 22a3.328 3.328 0 0 0-.613-.055c-.684 0-1.212.261-1.584.786-.324.462-.486 1.047-.486 1.753v4.657h-1.943l.018-6.08c0-1.024-.025-1.955-.073-2.795h1.693l.071 1.698h.054c.205-.584.529-1.053.972-1.406.433-.317.9-.475 1.405-.475.18 0 .342.013.486.036v1.88zm8.694 2.283c0 .353-.023.651-.072.895h-5.831c.023.876.304 1.547.846 2.01.491.413 1.127.62 1.907.62.864 0 1.652-.14 2.36-.42l.304 1.37c-.827.366-1.805.548-2.933.548-1.356 0-2.421-.405-3.196-1.215-.773-.81-1.161-1.896-1.161-3.26 0-1.338.36-2.452 1.081-3.341.755-.95 1.776-1.424 3.06-1.424 1.26 0 2.215.475 2.863 1.424.514.753.772 1.686.772 2.793zm-1.854-.511c.013-.585-.114-1.09-.378-1.516-.336-.549-.853-.823-1.549-.823-.635 0-1.152.267-1.547.804-.324.426-.516.938-.575 1.534h4.049zM40.592 6.728a3.41 3.41 0 0 1 .703-.319c.262-.087.57-.13.925-.13.572 0 1.022.138 1.352.412.33.275.495.646.495 1.113 0 .371-.11.682-.33.934a1.603 1.603 0 0 1-.846.502v.027c.189.03.367.082.535.157a1.453 1.453 0 0 1 .743.74c.073.168.11.353.11.558 0 .335-.066.616-.199.843a1.683 1.683 0 0 1-.522.557 2.174 2.174 0 0 1-.72.31c-.265.061-.53.093-.796.093-.283 0-.563-.03-.84-.09a2.588 2.588 0 0 1-.77-.295l.239-.745c.153.078.35.153.593.225.241.072.485.107.733.107.407 0 .722-.092.942-.277a.925.925 0 0 0 .332-.745.923.923 0 0 0-.133-.516.976.976 0 0 0-.345-.32 1.494 1.494 0 0 0-.474-.16 3.083 3.083 0 0 0-.517-.046h-.398v-.737h.398c.183 0 .352-.023.51-.072.155-.047.29-.115.406-.202a.964.964 0 0 0 .27-.31.845.845 0 0 0 .096-.404c0-.269-.095-.48-.283-.632-.189-.153-.442-.23-.76-.23a2.1 2.1 0 0 0-.655.108c-.218.072-.413.15-.585.233l-.209-.69zm7.596 5.698l-.07-.503h-.026c-.288.4-.707.601-1.256.601a1.39 1.39 0 0 1-.53-.098 1.306 1.306 0 0 1-.416-.27 1.189 1.189 0 0 1-.275-.404 1.32 1.32 0 0 1-.096-.511c0-.544.218-.953.654-1.225.437-.272 1.055-.408 1.858-.408v-.08c0-.575-.298-.862-.892-.862a1.98 1.98 0 0 0-1.12.323l-.195-.636c.395-.25.886-.377 1.474-.377 1.125 0 1.687.602 1.687 1.804v1.606c0 .448.021.795.062 1.04h-.859zm-.132-2.171c-.533 0-.93.068-1.192.206-.26.138-.39.362-.39.673 0 .228.06.398.184.512a.66.66 0 0 0 .466.17.955.955 0 0 0 .646-.252.913.913 0 0 0 .208-.283.81.81 0 0 0 .078-.354v-.672zm5.537-2.19v.798h-1.787v3.563h-.954v-4.36zm5.465 2.127c0 .347-.047.664-.14.95a2.22 2.22 0 0 1-.395.736 1.74 1.74 0 0 1-1.375.647c-.566 0-.973-.207-1.22-.62h-.019v2.297h-.955V9.501a36.314 36.314 0 0 0-.035-1.437h.84l.054.691h.018c.318-.52.801-.78 1.45-.78.253 0 .488.053.703.16.216.109.402.26.562.454.16.194.284.427.376.7.09.273.136.573.136.903zm-.972.036c0-.216-.025-.415-.075-.597a1.375 1.375 0 0 0-.22-.466 1.083 1.083 0 0 0-.355-.305.962.962 0 0 0-.465-.112.957.957 0 0 0-.398.09c-.13.059-.243.14-.34.242a1.171 1.171 0 0 0-.234.368c-.06.143-.09.296-.09.458v.727c0 .16.025.31.076.449.05.137.12.257.211.358a.958.958 0 0 0 .328.238c.126.057.266.085.42.085.36 0 .64-.139.84-.417.2-.278.302-.652.302-1.118zm6.104-2.163L63.1 11.09a13.67 13.67 0 0 1-.756 1.763c-.245.458-.478.79-.703 1-.33.3-.68.483-1.053.547l-.23-.815c.248-.066.484-.195.708-.386a2.14 2.14 0 0 0 .54-.718.555.555 0 0 0 .07-.197.823.823 0 0 0-.053-.206l-1.557-4.011h1.052l.814 2.432a5.5 5.5 0 0 1 .124.386c.042.143.086.302.133.475h.019c.029-.096.062-.216.096-.364.036-.146.083-.315.142-.506l.725-2.423h1.018zm1.654 1.812h.441c.324 0 .575-.06.751-.18.176-.12.266-.266.266-.44a.501.501 0 0 0-.226-.43c-.15-.107-.359-.162-.624-.162-.171 0-.344.03-.516.086a2.697 2.697 0 0 0-.482.21l-.248-.627c.248-.137.494-.231.74-.282.244-.05.49-.077.738-.077.196 0 .392.02.589.059.196.038.372.104.525.197.153.092.28.213.375.363.098.15.146.335.146.557a.784.784 0 0 1-.08.364.94.94 0 0 1-.212.277c-.087.08-.186.147-.295.197a1.61 1.61 0 0 1-.33.113v.027c.14.018.277.054.41.108.132.054.251.124.359.21.104.088.19.192.256.314a.892.892 0 0 1 .096.418c0 .257-.06.472-.186.645a1.333 1.333 0 0 1-.474.413 2.24 2.24 0 0 1-.632.22 3.541 3.541 0 0 1-1.457-.018 2.449 2.449 0 0 1-.7-.264l.248-.637c.153.084.328.154.525.21.198.057.4.086.606.086.324 0 .573-.064.747-.193.173-.128.26-.288.26-.48a.55.55 0 0 0-.087-.318.65.65 0 0 0-.247-.211 1.2 1.2 0 0 0-.372-.112 3.096 3.096 0 0 0-.46-.031h-.45v-.612zm5.102-1.812v1.543c0 .353-.005.67-.018.95-.013.282-.027.578-.045.889l.018.017.331-.668c.11-.219.221-.442.333-.67l1.061-2.063h1.238v4.36h-.903v-1.542c0-.323.01-.646.023-.969.014-.323.03-.65.048-.978h-.045a6.67 6.67 0 0 1-.3.7c-.1.197-.2.4-.3.61l-.545 1.077c-.18.359-.37.727-.57 1.104h-1.237v-4.36h.911zm7.96 0v.798h-1.309v3.563h-.939V8.863h-1.3v-.798zm4.872 1.974c0 .083-.003.163-.009.238a1.643 1.643 0 0 1-.026.201h-2.866c.013.413.14.732.385.956.244.224.568.337.968.337.419 0 .805-.069 1.159-.207l.15.674c-.408.18-.888.269-1.443.269-.335 0-.636-.053-.9-.157a1.86 1.86 0 0 1-.674-.444 1.966 1.966 0 0 1-.42-.691 2.688 2.688 0 0 1-.144-.906c0-.335.048-.645.144-.929.098-.284.235-.53.411-.74a1.94 1.94 0 0 1 .641-.494c.25-.119.53-.179.837-.179.27 0 .516.05.74.148.22.098.409.239.564.422.157.182.276.401.358.655.084.253.125.536.125.847zm-.912-.25c0-.342-.08-.619-.242-.83-.162-.212-.397-.32-.703-.32a.914.914 0 0 0-.707.323c-.194.216-.306.49-.336.826h1.988zm4.761-1.688c.171-.03.388-.054.653-.072a11.7 11.7 0 0 1 .815-.027c.176 0 .375.011.596.032.22.02.433.068.632.143.201.075.368.187.504.337.136.15.205.352.205.61a.858.858 0 0 1-.261.627c-.08.078-.172.143-.275.193-.103.05-.21.089-.323.112l.01.026c.311.054.566.168.76.342.194.174.292.412.292.718 0 .305-.084.547-.247.727a1.55 1.55 0 0 1-.611.404c-.243.09-.497.147-.766.171a8.489 8.489 0 0 1-.72.036c-.237 0-.468-.005-.694-.018a22.787 22.787 0 0 1-.57-.036V8.1zm.919 1.741h.486c.147 0 .288-.01.42-.031a1.39 1.39 0 0 0 .35-.098.591.591 0 0 0 .235-.18.445.445 0 0 0 .083-.274.463.463 0 0 0-.244-.434c-.162-.093-.417-.14-.764-.14a3.1 3.1 0 0 0-.262.01l-.304.027v1.12zm0 1.929c.117.012.217.02.295.026a3.528 3.528 0 0 0 .678-.017c.135-.018.26-.052.372-.103a.685.685 0 0 0 .269-.205.542.542 0 0 0 .103-.343c0-.25-.11-.422-.328-.517-.218-.096-.512-.143-.885-.143h-.504v1.302z" fill="#FFF"/></g></svg>