<svg xmlns="http://www.w3.org/2000/svg" width="126" height="37" viewBox="0 0 126 37"><defs><linearGradient id="a" x1="91.488%" x2="-38.352%" y1="4.948%" y2="71.907%"><stop offset="0%" stop-color="#00A0FF"/><stop offset="1%" stop-color="#00A1FF"/><stop offset="26%" stop-color="#00BEFF"/><stop offset="51%" stop-color="#00D2FF"/><stop offset="76%" stop-color="#00DFFF"/><stop offset="100%" stop-color="#00E3FF"/></linearGradient><linearGradient id="b" x1="107.685%" x2="-130.64%" y1="50%" y2="50%"><stop offset="0%" stop-color="#FFE000"/><stop offset="41%" stop-color="#FFBD00"/><stop offset="78%" stop-color="#FFA500"/><stop offset="100%" stop-color="#FF9C00"/></linearGradient><linearGradient id="c" x1="86.219%" x2="-50.15%" y1="17.877%" y2="194.703%"><stop offset="0%" stop-color="#FF3A44"/><stop offset="100%" stop-color="#C31162"/></linearGradient><linearGradient id="d" x1="-18.754%" x2="42.121%" y1="-54.052%" y2="24.917%"><stop offset="0%" stop-color="#32A071"/><stop offset="7%" stop-color="#2DA771"/><stop offset="48%" stop-color="#15CF74"/><stop offset="80%" stop-color="#06E775"/><stop offset="100%" stop-color="#00F076"/></linearGradient></defs><g fill="none"><rect width="124.374" height="37" x=".813" fill="#000" rx="5"/><path fill="#A6A6A6" d="M120.58.74c2.138 0 3.87 1.74 3.87 3.885v27.75a3.877 3.877 0 0 1-3.87 3.885H5.42a3.877 3.877 0 0 1-3.87-3.885V4.625A3.877 3.877 0 0 1 5.42.74h115.16zm0-.74H5.42C2.874 0 .812 2.07.812 4.625v27.75C.813 34.929 2.875 37 5.419 37h115.162c2.544 0 4.606-2.07 4.606-4.625V4.625c0-2.554-2.062-4.625-4.606-4.625z"/><path fill="#FFF" d="M63.59 20.135c-2.16.01-3.904 1.793-3.897 3.984.006 2.19 1.761 3.962 3.921 3.958 2.16-.003 3.91-1.78 3.91-3.97a3.944 3.944 0 0 0-1.137-2.832 3.832 3.832 0 0 0-2.797-1.14zm0 6.382a2.372 2.372 0 0 1-2.311-1.366 2.437 2.437 0 0 1 .404-2.68 2.354 2.354 0 0 1 2.608-.603 2.41 2.41 0 0 1 1.51 2.238c.03.62-.188 1.225-.605 1.679a2.252 2.252 0 0 1-1.606.732zm-8.578-6.382c-2.16.005-3.91 1.786-3.906 3.977.004 2.192 1.757 3.967 3.919 3.965 2.161-.001 3.912-1.779 3.912-3.97a3.944 3.944 0 0 0-1.137-2.832 3.832 3.832 0 0 0-2.797-1.14h.01zm0 6.382a2.372 2.372 0 0 1-2.316-1.359 2.437 2.437 0 0 1 .398-2.683 2.354 2.354 0 0 1 2.608-.608 2.41 2.41 0 0 1 1.512 2.24 2.32 2.32 0 0 1-.604 1.678 2.252 2.252 0 0 1-1.607.732h.01zm-10.217-5.158v1.682h3.98a3.547 3.547 0 0 1-.921 2.121 4.042 4.042 0 0 1-3.068 1.233c-2.442 0-4.422-2.008-4.422-4.485 0-2.477 1.98-4.485 4.422-4.485a4.206 4.206 0 0 1 3.013 1.206l1.17-1.187a5.754 5.754 0 0 0-4.174-1.747 6.07 6.07 0 0 0-5.47 3.014 6.252 6.252 0 0 0 0 6.315 6.07 6.07 0 0 0 5.47 3.014 5.488 5.488 0 0 0 4.247-1.729 5.653 5.653 0 0 0 1.438-3.943 5.56 5.56 0 0 0-.092-1.056l-5.593.047zm41.744 1.308a3.692 3.692 0 0 0-3.354-2.532 3.66 3.66 0 0 0-2.69 1.176 3.769 3.769 0 0 0-.995 2.795 3.916 3.916 0 0 0 1.112 2.824 3.805 3.805 0 0 0 2.776 1.147 3.882 3.882 0 0 0 3.262-1.756l-1.336-.935a2.232 2.232 0 0 1-1.926 1.103 1.988 1.988 0 0 1-1.898-1.205l5.242-2.196-.193-.42zm-5.344 1.327a2.196 2.196 0 0 1 .543-1.594 2.135 2.135 0 0 1 1.503-.723c.607-.04 1.18.29 1.455.84l-3.5 1.477zm-4.256 3.85h1.723v-11.68h-1.723v11.68zm-2.819-6.821h-.065a2.747 2.747 0 0 0-2.063-.935c-2.091.103-3.735 1.853-3.735 3.976 0 2.124 1.644 3.873 3.735 3.976a2.655 2.655 0 0 0 2.063-.934h.056v.57c0 1.523-.802 2.336-2.092 2.336a2.167 2.167 0 0 1-1.971-1.411l-1.502.635a3.731 3.731 0 0 0 3.473 2.345c2.018 0 3.686-1.205 3.686-4.139v-7.073H74.12v.654zm-1.972 5.494c-1.231-.11-2.176-1.157-2.176-2.41 0-1.255.945-2.301 2.176-2.411a2.2 2.2 0 0 1 1.547.758c.394.454.59 1.05.545 1.652a2.244 2.244 0 0 1-.542 1.661 2.18 2.18 0 0 1-1.559.75h.01zM94.61 16.164h-4.118v11.68h1.723v-4.43h2.405a3.57 3.57 0 0 0 3.316-1.732 3.679 3.679 0 0 0 0-3.785 3.57 3.57 0 0 0-3.316-1.733h-.01zm0 5.606h-2.404v-3.98h2.441c1.092 0 1.976.897 1.976 2.004s-.884 2.004-1.976 2.004l-.037-.028zm10.623-1.682a3.217 3.217 0 0 0-3.068 1.785l1.53.645a1.626 1.626 0 0 1 1.566-.86c.441-.052.885.078 1.232.36.346.283.566.696.61 1.145v.121a3.762 3.762 0 0 0-1.796-.448c-1.65 0-3.317.934-3.317 2.625.033.729.355 1.413.893 1.897a2.64 2.64 0 0 0 1.963.673 2.412 2.412 0 0 0 2.211-1.122h.055v.935h1.659v-4.495c0-2.046-1.53-3.233-3.492-3.233l-.046-.028zm-.212 6.4c-.562 0-1.345-.289-1.345-.99 0-.934.977-1.242 1.843-1.242a3.025 3.025 0 0 1 1.566.392 2.094 2.094 0 0 1-2.018 1.869l-.046-.028zm9.793-6.12l-1.971 5.065h-.055l-2.046-5.064H108.9l3.068 7.082-1.75 3.934h1.796l4.717-11.016h-1.917zm-15.487 7.476h1.723v-11.68h-1.723v11.68z"/><path fill="url(#a)" d="M10.431 6.858c-.3.365-.452.833-.424 1.308v20.668c-.028.475.124.943.424 1.308l.065.066L21.91 18.64v-.27L10.496 6.791l-.065.066z"/><path fill="url(#b)" d="M25.688 22.5l-3.778-3.86v-.27l3.778-3.87.083.048 4.523 2.606c1.29.739 1.29 1.953 0 2.7l-4.505 2.598-.101.047z"/><path fill="url(#c)" d="M25.798 22.443L21.91 18.5 10.431 30.142a1.486 1.486 0 0 0 1.916.056l13.46-7.755"/><path fill="url(#d)" d="M25.798 14.557l-13.46-7.755a1.486 1.486 0 0 0-1.916.056L21.91 18.5l3.888-3.943z"/><path fill="#000" d="M25.688 22.359l-13.35 7.709a1.521 1.521 0 0 1-1.842 0l-.065.065.065.065a1.512 1.512 0 0 0 1.842 0l13.46-7.755-.11-.084z" opacity=".2"/><path fill="#000" d="M10.431 30.012a1.886 1.886 0 0 1-.424-1.309v.14a1.89 1.89 0 0 0 .424 1.309l.065-.066-.065-.074zm19.863-10.297l-4.606 2.644.083.084 4.523-2.598c.523-.248.874-.762.921-1.345a1.735 1.735 0 0 1-.92 1.215z" opacity=".12"/><path fill="#FFF" d="M12.338 6.932l17.956 10.353c.476.239.816.687.921 1.215a1.635 1.635 0 0 0-.92-1.346L12.337 6.802c-1.29-.739-2.34-.122-2.34 1.373v.14c.028-1.504 1.06-2.12 2.34-1.383z" opacity=".25"/><path fill="#FFF" stroke="#FFF" stroke-width=".2" d="M39.608 13.146h-.681v-1.869h.58a2.696 2.696 0 0 0 .7-2.149V6.353h3.685v4.915h.618v1.869h-.682v-1.178h-4.22v1.187zm1.281-3.99a3.78 3.78 0 0 1-.525 2.15h2.764V7.044h-2.239v2.111zm9.13 2.075a2.846 2.846 0 0 1-4.054 0 3.059 3.059 0 0 1 0-4.158 2.836 2.836 0 0 1 2.027-.856c.761 0 1.49.308 2.027.856a3.05 3.05 0 0 1 0 4.158zm-3.529-.468c.83.839 2.174.839 3.004 0a2.417 2.417 0 0 0 0-3.214 2.107 2.107 0 0 0-3.004 0 2.417 2.417 0 0 0 0 3.214zm7.924 1.318a2.799 2.799 0 0 1-2.053-.84 2.88 2.88 0 0 1-.822-2.085 2.88 2.88 0 0 1 .822-2.084 2.799 2.799 0 0 1 2.053-.84 2.537 2.537 0 0 1 2.026.934l-.497.486a1.832 1.832 0 0 0-1.539-.71 2.076 2.076 0 0 0-1.529.616 2.427 2.427 0 0 0 0 3.243c.405.409.958.632 1.53.616a2.172 2.172 0 0 0 1.685-.831l.498.504a2.69 2.69 0 0 1-.921.73c-.394.18-.822.27-1.253.26zm5.067-.122h-.71V7.045h-1.547v-.692h3.795v.692h-1.538v4.914zm6.421-5.606l-2.091 4.728a1.395 1.395 0 0 1-1.272 1 1.402 1.402 0 0 1-.552-.122l.184-.663a.738.738 0 0 0 .368.103.65.65 0 0 0 .387-.094.878.878 0 0 0 .249-.355l.203-.448-1.843-4.14h.839l1.363 3.215 1.327-3.224h.838zm.802 5.606V6.353h3.998v5.606h-.71V7.045h-2.579v4.914h-.71zm5.26 0V6.353h.71v2.401h2.763v-2.4h.71v5.605h-.71V9.427h-2.763v2.532h-.71zm9.978-.728a2.846 2.846 0 0 1-4.054 0 3.059 3.059 0 0 1 0-4.158 2.836 2.836 0 0 1 2.027-.856c.761 0 1.49.308 2.027.856a3.05 3.05 0 0 1 0 4.158zm-3.529-.468c.83.839 2.173.839 3.004 0a2.417 2.417 0 0 0 0-3.214 2.107 2.107 0 0 0-3.004 0 2.417 2.417 0 0 0 0 3.214zm7.242 1.196V6.353h1.999a1.61 1.61 0 0 1 1.124.43c.311.274.487.675.479 1.093a1.237 1.237 0 0 1-.746 1.159c.267.09.501.259.672.486.177.229.272.512.267.803.01.436-.173.854-.497 1.14-.321.3-.743.464-1.18.458l-2.118.037zm.709-3.205h1.29c.244.01.48-.088.645-.27a.837.837 0 0 0 .036-1.197.787.787 0 0 0-.617-.27h-1.317l-.037 1.737zm0 2.514h1.428a.842.842 0 0 0 .663-.29.928.928 0 0 0-.663-1.57h-1.4l-.028 1.86z"/></g></svg>