<svg xmlns="http://www.w3.org/2000/svg" width="185" height="37" viewBox="0 0 185 37"><g fill="none" fill-rule="evenodd"><path fill="#FEFEFE" d="M48.161 29.657c-1.488-.52-2.653-1.202-3.496-2.046a1.574 1.574 0 0 1-.483-1.152c0-.596.248-1.079.744-1.45.47-.348.904-.521 1.301-.521.496 0 .967.223 1.413.67.471.52 1.178.973 2.12 1.357a7.883 7.883 0 0 0 3.012.576c1.413 0 2.51-.235 3.291-.707.78-.47 1.171-1.103 1.171-1.896 0-.769-.384-1.406-1.152-1.915-.77-.508-2.07-.936-3.905-1.283-4.76-.917-7.14-2.876-7.14-5.876 0-1.214.36-2.243 1.079-3.087.718-.842 1.66-1.474 2.826-1.896A10.853 10.853 0 0 1 52.66 9.8c1.612 0 3.056.26 4.333.78 1.276.52 2.287 1.241 3.03 2.158.322.396.484.794.484 1.19 0 .422-.21.806-.632 1.153-.274.199-.62.296-1.041.296-.645 0-1.227-.234-1.748-.705-.62-.57-1.277-.973-1.971-1.21-.694-.234-1.537-.353-2.529-.353-1.14 0-2.077.192-2.807.578-.732.383-1.097.923-1.097 1.617 0 .496.123.91.37 1.245.249.334.72.646 1.414.93.694.286 1.698.564 3.013.836 2.702.547 4.617 1.302 5.745 2.27 1.129.967 1.692 2.218 1.692 3.755a5.48 5.48 0 0 1-.929 3.105c-.62.93-1.532 1.661-2.734 2.194-1.202.533-2.647.8-4.332.8-1.687 0-3.273-.26-4.76-.78m28.281-3.479a6.42 6.42 0 0 0 2.36-2.492c.572-1.053.857-2.237.857-3.552 0-1.313-.285-2.503-.856-3.57a6.406 6.406 0 0 0-2.361-2.51c-1.004-.606-2.126-.91-3.365-.91-1.24 0-2.362.304-3.366.91a6.55 6.55 0 0 0-2.38 2.51c-.583 1.067-.874 2.257-.874 3.57 0 1.315.291 2.499.874 3.552a6.567 6.567 0 0 0 2.38 2.491c1.004.61 2.125.912 3.366.912 1.239 0 2.361-.303 3.365-.912m1.823-15.022a9.998 9.998 0 0 1 3.68 3.719c.906 1.573 1.358 3.327 1.358 5.26v8.294c0 .546-.18.998-.54 1.357-.358.359-.812.54-1.357.54-.545 0-.997-.181-1.357-.54-.36-.359-.539-.811-.539-1.357v-1.377a9.117 9.117 0 0 1-3.161 2.493 9.177 9.177 0 0 1-4.016.892c-1.785 0-3.403-.447-4.853-1.339-1.45-.892-2.591-2.126-3.421-3.7-.83-1.574-1.247-3.329-1.247-5.263 0-1.933.447-3.687 1.34-5.26a9.772 9.772 0 0 1 3.7-3.719c1.574-.906 3.315-1.359 5.225-1.359 1.908 0 3.638.453 5.188 1.359m23.557-.28c1.363.745 2.43 1.83 3.198 3.254.768 1.426 1.152 3.143 1.152 5.15v9.149c0 .546-.18.999-.539 1.356-.36.36-.812.54-1.356.54-.547 0-.999-.18-1.358-.54-.36-.357-.54-.81-.54-1.356v-9.148c0-2.008-.538-3.527-1.617-4.555-1.078-1.03-2.51-1.544-4.295-1.544-1.042 0-1.99.21-2.845.632-.856.422-1.525.991-2.008 1.71a4.23 4.23 0 0 0-.725 2.418V28.43c0 .546-.174.999-.521 1.356-.347.36-.806.54-1.376.54-.545 0-.998-.18-1.358-.54-.36-.357-.538-.81-.538-1.356V11.844c0-.57.179-1.029.538-1.376.36-.346.813-.521 1.358-.521.57 0 1.029.175 1.376.52.347.348.52.807.52 1.377v.409a8.288 8.288 0 0 1 2.827-1.841 9.379 9.379 0 0 1 3.496-.65c1.71 0 3.248.372 4.61 1.115m18.576 16.213c.31.348.465.795.465 1.34 0 .546-.205.99-.614 1.339-.41.347-.935.52-1.58.52h-.67a6.125 6.125 0 0 1-3.329-.948 6.608 6.608 0 0 1-2.36-2.584c-.571-1.09-.856-2.319-.856-3.683V13.89h-1.71c-.521 0-.943-.148-1.264-.446a1.453 1.453 0 0 1-.484-1.116c0-.495.16-.892.484-1.19.32-.297.743-.445 1.264-.445h1.71V5.336c0-.544.173-.99.52-1.338.347-.348.794-.52 1.34-.52.545 0 .99.172 1.339.52.347.347.52.794.52 1.338v5.356h3.161c.52 0 .941.148 1.264.445.322.298.484.695.484 1.19 0 .447-.162.819-.484 1.116-.323.298-.744.446-1.264.446h-3.161v9.185c0 .993.272 1.824.818 2.493.545.67 1.214 1.003 2.008 1.003h1.264c.446 0 .824.174 1.135.52m21.4-16.658c.347.347.52.805.52 1.375v16.585c0 .546-.173.999-.52 1.358-.347.36-.805.54-1.376.54-.545 0-.998-.18-1.358-.54-.359-.359-.538-.812-.538-1.358v-.409a8.257 8.257 0 0 1-2.827 1.841 9.356 9.356 0 0 1-3.495.651c-1.71 0-3.249-.373-4.612-1.116-1.363-.743-2.43-1.827-3.198-3.253-.768-1.426-1.152-3.143-1.152-5.151v-9.148c0-.545.18-.998.54-1.357.358-.36.81-.54 1.356-.54s.999.18 1.358.54c.358.36.539.812.539 1.357v9.148c0 2.008.54 3.527 1.618 4.554 1.078 1.03 2.51 1.544 4.295 1.544 1.04 0 1.99-.209 2.844-.632.856-.421 1.525-.991 2.01-1.71a4.24 4.24 0 0 0 .724-2.418V11.807c0-.57.179-1.028.538-1.375.36-.348.813-.522 1.358-.522.57 0 1.029.174 1.376.522m10.785-4.389c-.844.917-1.265 2.132-1.265 3.644v1.005h3.793c.52 0 .942.147 1.265.445.322.298.482.695.482 1.19 0 .447-.16.818-.482 1.116-.323.298-.744.446-1.265.446h-3.793v14.503c0 .571-.173 1.029-.52 1.376-.347.348-.831.521-1.45.521-.497 0-.924-.173-1.284-.52-.359-.348-.539-.806-.539-1.377V13.89h-1.599c-.52 0-.943-.148-1.265-.446a1.455 1.455 0 0 1-.483-1.116c0-.495.16-.892.483-1.19.322-.298.744-.445 1.265-.445h1.6v-.633c0-1.76.352-3.303 1.059-4.63a7.582 7.582 0 0 1 2.975-3.086c1.276-.731 2.733-1.097 4.37-1.097.545 0 .997.161 1.357.483.358.322.539.73.539 1.228 0 .496-.18.905-.54 1.227-.36.322-.811.483-1.357.483-1.388 0-2.504.46-3.346 1.376m10.208 8.44c-1.129.992-1.84 2.318-2.138 3.98h12.383c-.223-1.662-.843-2.988-1.86-3.98-1.017-.99-2.343-1.488-3.979-1.488-1.81 0-3.279.497-4.407 1.488m13.183 6.49c-.322.31-.731.465-1.227.465h-14.131c.272 1.735 1.06 3.136 2.362 4.201 1.301 1.067 2.894 1.6 4.778 1.6.744 0 1.519-.136 2.325-.41.804-.272 1.469-.607 1.99-1.003.346-.273.755-.41 1.226-.41.47 0 .843.125 1.115.373.447.37.67.794.67 1.264 0 .446-.198.817-.595 1.116-.843.669-1.891 1.215-3.142 1.636-1.252.422-2.449.632-3.589.632-2.033 0-3.855-.44-5.466-1.32a9.556 9.556 0 0 1-3.774-3.664c-.907-1.561-1.358-3.334-1.358-5.318 0-1.982.427-3.76 1.283-5.336.855-1.573 2.045-2.8 3.57-3.68 1.524-.881 3.253-1.322 5.187-1.322 1.909 0 3.558.423 4.946 1.265 1.388.843 2.455 2.02 3.198 3.533.744 1.513 1.116 3.248 1.116 5.206 0 .47-.161.862-.484 1.172m4.369 8.776c-.359-.359-.539-.812-.539-1.358V11.844c0-.57.18-1.029.54-1.376.359-.347.811-.52 1.356-.52.57 0 1.03.173 1.377.52.347.347.52.806.52 1.376v16.548c0 .546-.173.999-.52 1.358-.347.36-.807.54-1.377.54-.545 0-.997-.18-1.357-.54"/><path fill="#F3794C" d="M179.97 5.913a2.359 2.359 0 0 1-.726-1.73c0-.669.242-1.246.725-1.729a2.365 2.365 0 0 1 1.73-.725c.67 0 1.245.242 1.729.725.483.483.725 1.06.725 1.73 0 .67-.242 1.245-.725 1.729a2.36 2.36 0 0 1-1.73.725 2.362 2.362 0 0 1-1.729-.725"/><path fill="#00C2B0" d="M8.807 36A8.808 8.808 0 0 1 0 27.193V11.808A8.808 8.808 0 0 1 8.807 3h15.385A8.808 8.808 0 0 1 33 11.808v15.385A8.808 8.808 0 0 1 24.192 36H8.807z"/><path fill="#FFF" d="M9.75 23.871l-.556.557c-.487.487-1.242.668-1.856.354a1.595 1.595 0 0 1-.433-2.562l.557-.556c.487-.487 1.243-.668 1.855-.354a1.595 1.595 0 0 1 .434 2.561zm16.414-12.07s-2.854 8.898-3.176 9.911c-.321 1.013-1.664 1.035-2.23.855a1.136 1.136 0 0 0-1.157.26l-.96.96a1.59 1.59 0 0 1-2.407-.185c-.48-.647-.333-1.571.237-2.142l.414-.414c.59-.59.59-1.545 0-2.134l-.02-.02a1.508 1.508 0 0 0-2.135 0l-1.615 1.615a1.59 1.59 0 0 1-2.4-.175c-.49-.65-.34-1.581.46-2.382l1.781-1.78c.3-.3.388-.74.257-1.144-.185-.567-.096-1.946.857-2.25l9.906-3.163c1.366-.515 2.703.822 2.188 2.188zM15.27 27.158l-2.47 2.47c-.486.487-1.242.666-1.854.352a1.595 1.595 0 0 1-.434-2.56l2.47-2.47c.486-.486 1.242-.667 1.855-.353a1.595 1.595 0 0 1 .433 2.561z"/></g></svg>