<svg xmlns="http://www.w3.org/2000/svg" width="75" height="40" viewBox="0 0 75 40"><g fill="none" fill-rule="evenodd"><path fill="#E30016" d="M71.269 17.143h.16c.059 0 .127.002.175-.03.05-.034.07-.1.07-.158 0-.05-.027-.113-.07-.136-.041-.03-.127-.024-.178-.024h-.157v.348zm0 .692h-.282v-1.273h.512c.104 0 .22.006.309.07a.39.39 0 0 1 .154.319c0 .142-.08.275-.207.321l.22.563h-.313l-.186-.5h-.207v.5zm.188.471c.577 0 1.049-.496 1.049-1.106 0-.604-.472-1.095-1.05-1.095-.574 0-1.048.49-1.048 1.095 0 .61.474 1.106 1.049 1.106zM70.08 17.2c0-.796.62-1.444 1.377-1.444.76 0 1.372.648 1.372 1.444 0 .802-.613 1.45-1.372 1.45-.757 0-1.377-.648-1.377-1.45zM50.41 7.587l-.376 2.454c-.817-.436-1.42-.607-2.06-.607-1.715 0-2.927 1.742-2.927 4.229 0 1.717.814 2.753 2.151 2.753.569 0 1.193-.184 1.956-.583l-.402 2.58c-.844.243-1.395.33-2.034.33-2.48 0-4.026-1.872-4.026-4.88 0-4.04 2.133-6.863 5.185-6.863.393 0 .746.038 1.032.122l.95.248c.28.112.346.129.55.217m-7.637 1.682a1.385 1.385 0 0 0-.237-.024c-.757 0-1.186.402-1.89 1.496l.205-1.396h-2.085l-1.415 9.19h2.314c.826-5.619 1.038-6.587 2.148-6.587.066 0 .072 0 .167.009.205-1.106.484-1.92.872-2.663l-.079-.025zm-13.781 9.154c-.626.207-1.12.302-1.651.302-1.174 0-1.817-.717-1.817-2.021 0-.256.02-.533.066-.825l.144-.894.103-.732 1-6.272h2.288l-.262 1.364h1.178l-.323 2.233H28.54l-.607 3.836c-.021.169-.038.293-.038.38 0 .47.239.681.782.681.267 0 .467-.027.62-.084l-.307 2.032zm-9.074-6.173c0 1.159.536 1.963 1.745 2.561.926.461 1.074.597 1.074 1.015 0 .571-.412.835-1.317.835-.683 0-1.322-.114-2.058-.367l-.32 2.119.105.023.423.089c.137.029.336.054.6.082.55.053.97.076 1.267.076 2.415 0 3.533-.975 3.533-3.068 0-1.259-.467-2-1.618-2.557-.96-.459-1.068-.567-1.068-.994 0-.497.381-.753 1.12-.753.452 0 1.063.053 1.647.136l.327-2.121a14.2 14.2 0 0 0-2.02-.182c-2.56 0-3.448 1.41-3.44 3.106m45.431 4.12c1.074 0 1.827-1.275 1.827-3.096 0-1.168-.43-1.804-1.225-1.804-1.042 0-1.784 1.283-1.784 3.091 0 1.204.4 1.809 1.182 1.809zm3.396 2.165h-2.178l.114-.9c-.635.71-1.286 1.02-2.128 1.02-1.683 0-2.784-1.516-2.784-3.814 0-3.056 1.713-5.638 3.75-5.638.893 0 1.57.387 2.207 1.258l.5-3.229h2.27l-1.751 11.303zM34.99 12.87a6.96 6.96 0 0 0 .017-.465c0-.751-.406-1.19-1.09-1.19-.73 0-1.253.585-1.468 1.649l2.541.006zm1.292 5.47a7.672 7.672 0 0 1-2.366.37c-2.567 0-3.908-1.412-3.908-4.114 0-3.158 1.707-5.482 4.026-5.482 1.891 0 3.105 1.303 3.105 3.344 0 .676-.08 1.336-.286 2.269h-4.576c-.019.14-.023.203-.023.283 0 1.074.685 1.616 2.024 1.616.82 0 1.56-.178 2.387-.584l-.383 2.299zm-25.606.195H8.378L9.693 9.85l-2.941 8.685H5.174L4.984 9.9l-1.387 8.634H1.444L3.24 7.232h3.315l.091 6.993 2.237-6.993h3.576zm7.6 0h-1.905l.04-.954c-.58.76-1.355 1.113-2.41 1.113-1.252 0-2.107-1.024-2.107-2.504 0-2.244 1.494-3.547 4.046-3.547.26 0 .594.022.936.07.072-.304.091-.435.091-.596 0-.609-.4-.837-1.477-.837-.652 0-1.4.097-1.916.262l-.32.093-.2.059.317-2.061c1.148-.358 1.905-.495 2.757-.495 1.98 0 3.026.932 3.026 2.693 0 .46-.034.798-.19 1.825l-.482 3.255-.079.588-.059.47-.04.319-.028.247zm-1.675-4.094a3.714 3.714 0 0 0-.513-.04c-1.305 0-1.967.476-1.967 1.404 0 .571.326.937.83.937.934 0 1.613-.937 1.65-2.3zm39.451 4.094h-1.91l.045-.954c-.582.76-1.358 1.113-2.41 1.113-1.253 0-2.111-1.024-2.111-2.504 0-2.244 1.493-3.547 4.05-3.547.26 0 .594.022.936.07.07-.304.09-.435.09-.596 0-.609-.399-.837-1.477-.837-.656 0-1.402.097-1.912.262l-.328.093-.198.059.32-2.061c1.15-.358 1.906-.495 2.752-.495 1.982 0 3.028.932 3.028 2.693 0 .46-.038.798-.188 1.825l-.484 3.255-.072.588-.064.47-.042.319-.025.247zm-1.677-4.094c-.24-.03-.349-.04-.512-.04-1.309 0-1.97.476-1.97 1.404 0 .571.327.937.83.937.941 0 1.612-.937 1.652-2.3zm8.105-5.172a1.246 1.246 0 0 0-.23-.024c-.755 0-1.189.402-1.895 1.496l.205-1.396h-2.083l-1.408 9.19h2.307c.827-5.619 1.045-6.587 2.144-6.587.072 0 .068-.007.163.009.207-1.106.489-1.92.876-2.663l-.079-.025z"/><path fill="#F49200" d="M55.085 27.484c0-2.316-1.143-4.117-3.294-4.117-2.474 0-4.08 2.19-4.08 5.418 0 2.31.948 4.2 3.293 4.2 2.366 0 4.081-1.676 4.081-5.501m-2.262-.038c0 2.085-.645 3.311-1.662 3.311-.742.021-1.193-.805-1.193-2.042 0-1.463.658-3.12 1.713-3.12.848 0 1.142.897 1.142 1.85m-4.371-5.705l-.351 2.45c-.765-.432-1.324-.611-1.924-.611-1.61 0-2.733 1.748-2.733 4.235 0 1.717.753 2.755 2.005 2.755.535 0 1.119-.181 1.83-.581l-.373 2.577c-.795.246-1.315.33-1.905.33-2.318 0-3.762-1.873-3.762-4.878 0-4.045 1.992-6.869 4.847-6.869.37 0 .695.05.966.123l.88.25c.272.108.328.127.52.22m-14.234 1.683a.8.8 0 0 0-.22-.025c-.697 0-1.108.402-1.761 1.494l.19-1.395h-1.945l-1.315 9.19h2.15c.772-5.62.977-6.589 2.007-6.589.061 0 .068 0 .156.01.195-1.11.455-1.926.817-2.67l-.079-.015zm24.898 7.006c1.013 0 1.71-1.276 1.71-3.098 0-1.172-.397-1.8-1.137-1.8-.977 0-1.673 1.277-1.673 3.092 0 1.197.373 1.806 1.1 1.806zm3.178 2.16h-2.03l.104-.896c-.592.706-1.206 1.02-1.992 1.02-1.567 0-2.599-1.519-2.599-3.817 0-3.05 1.605-5.638 3.502-5.638.837 0 1.472.395 2.06 1.267l.473-3.234h2.117l-1.635 11.299zm-49.431-5.506c.009-.194.015-.348.015-.467 0-.749-.377-1.186-1.015-1.186-.687 0-1.176.59-1.373 1.645l2.373.008zm1.201 5.469a6.633 6.633 0 0 1-2.201.374c-2.4 0-3.654-1.417-3.654-4.115 0-3.155 1.594-5.48 3.757-5.48 1.772 0 2.902 1.3 2.902 3.342 0 .674-.076 1.337-.26 2.267h-4.284a2.907 2.907 0 0 0-.02.285c0 1.073.643 1.614 1.889 1.614.77 0 1.463-.18 2.233-.584l-.362 2.297zm24.358-5.469c.015-.194.024-.348.024-.467 0-.749-.38-1.186-1.018-1.186-.685 0-1.173.59-1.372 1.645l2.366.008zm1.21 5.469a6.651 6.651 0 0 1-2.204.374c-2.404 0-3.656-1.417-3.656-4.115 0-3.155 1.597-5.48 3.758-5.48 1.772 0 2.906 1.3 2.906 3.342 0 .674-.081 1.337-.271 2.267h-4.276c-.013.138-.021.205-.021.285 0 1.073.64 1.614 1.888 1.614.768 0 1.464-.18 2.233-.584l-.357 2.297zm28.788-5.469c.009-.194.015-.348.015-.467 0-.749-.376-1.186-1.015-1.186-.687 0-1.174.59-1.372 1.645l2.372.008zm1.207 5.469a6.693 6.693 0 0 1-2.207.374c-2.4 0-3.656-1.417-3.656-4.115 0-3.155 1.599-5.48 3.76-5.48 1.772 0 2.899 1.3 2.899 3.342 0 .674-.074 1.337-.264 2.267H65.88c-.015.138-.02.205-.02.285 0 1.073.643 1.614 1.89 1.614.769 0 1.462-.18 2.234-.584l-.358 2.297zM7.701 23.84c-.42-.283-.99-.528-1.795-.528-.87 0-1.567.18-1.567 1.106 0 1.63 3.168 1.021 3.168 4.519 0 3.182-2.092 4.009-3.984 4.009-.842 0-1.81-.279-2.523-.596l.514-2.34c.429.392 1.298.659 2.009.659.676 0 1.738-.185 1.738-1.366 0-1.85-3.166-1.161-3.166-4.41 0-2.968 1.849-3.859 3.633-3.859 1.005 0 1.95.146 2.504.516l-.53 2.29zm12.656 8.709c-.442.213-1.034.355-1.907.355-1.88 0-3.045-1.878-3.045-4.164 0-2.992 1.685-5.38 4.166-5.38.541 0 1.366.235 2.017.612l-.474 2.195c-.46-.303-.94-.495-1.436-.495-1.15 0-1.97 1.053-1.97 2.939 0 1.087.596 1.98 1.537 1.98.558 0 .954-.119 1.434-.403l-.322 2.36zm8.04-2.301a37.11 37.11 0 0 0-.273 2.383h-2.07l.175-1.484h-.02c-.648 1.008-1.32 1.696-2.492 1.696-1.298 0-2.002-1.367-2.002-3.151 0-.616.038-.965.175-1.925l.586-4.254h2.303l-.618 4.267c-.06.459-.15.914-.15 1.387 0 .537.246 1.08.865 1.047.946 0 1.502-1.153 1.66-2.502l.637-4.2H29.4l-1.004 6.736zm43.377 2.271h-.349v-1.522h-.503v-.328h1.355v.328h-.503zm2.307 0h-.326v-1.546h-.004l-.31 1.546h-.34l-.306-1.546h-.004v1.546h-.323v-1.85h.507l.3 1.459h.007l.296-1.46h.503z"/></g></svg>