<svg xmlns="http://www.w3.org/2000/svg" xmlns:xlink="http://www.w3.org/1999/xlink" width="24" height="24" viewBox="0 0 24 24"><defs><path id="a" d="M6.1 3.314V13.85a.75.75 0 0 1-1.5 0V3.222c-.363.389-.72.775-1.062 1.148l-.188.206C2.436 5.582 1.768 6.36 1.46 6.788a.75.75 0 1 1-1.22-.875c.354-.492 1.045-1.297 2-2.346l.19-.209A147.814 147.814 0 0 1 4.799.831L5.357.25l5.05 5.598a.75.75 0 0 1-1.113 1.005L6.1 3.313zm9 12.814c.364-.388.722-.774 1.063-1.148l.188-.206c.914-1.006 1.582-1.782 1.89-2.212a.75.75 0 0 1 1.219.876c-.354.492-1.045 1.296-1.999 2.345l-.19.21a147.814 147.814 0 0 1-2.368 2.527l-.559.58-5.05-5.598a.75.75 0 0 1 1.113-1.004l3.194 3.539V5.85a.75.75 0 1 1 1.5 0v10.278z"/></defs><g fill="none" fill-rule="evenodd" transform="rotate(90 10 11.5)"><mask id="b" fill="#fff"><use xlink:href="#a"/></mask><g fill="#FB7B4C" fill-rule="nonzero" mask="url(#b)"><path d="M-2-2h24v24H-2z"/></g></g></svg>