<svg xmlns="http://www.w3.org/2000/svg" xmlns:xlink="http://www.w3.org/1999/xlink" width="75" height="40" viewBox="0 0 75 40"><defs><path id="a" d="M11.328 11.745V.247H.288v11.498h11.04z"/><path id="c" d="M.139 9.662h8.06V.288H.139v9.374z"/></defs><g fill="none" fill-rule="evenodd"><path fill="#3956A6" d="M61.761 26.19c-.095.764-.22 1.498-.376 2.202-.653-.213-1.408-.554-2.472-.483-.635.042-1.387.286-1.397.86-.011.634 1.031 1.012 1.612 1.29 1.046.5 2.17 1.167 2.257 2.525a3.198 3.198 0 0 1-.967 2.472c-1.465 1.384-4.715 1.53-6.933.645.139-.74.264-1.492.377-2.257.858.365 2.038.858 3.331.698.59-.073 1.311-.416 1.29-1.02-.026-.738-1.402-1.177-2.096-1.559-.806-.444-1.723-1.183-1.773-2.31a2.949 2.949 0 0 1 .645-1.935c1.145-1.423 4.088-1.93 6.502-1.129M35.424 11.797h2.963l-1.824 11.498h-2.964zm-7.666 2.286l-.458 2.885h.857c.833 0 1.62-.649 1.751-1.442.131-.794-.443-1.443-1.276-1.443h-.874zm-2.6-2.286h4.536c2.887 0 3.636 1.662 3.321 3.647-.263 1.658-1.454 2.765-3.001 3.158l2.873 4.693h-3.72l-2.154-4.515-.717 4.515h-2.963l1.825-11.498zm23.797 0h2.963l-1.824 11.498H47.13zm5.214 0h6.505l-.396 2.5h-3.543l-.311 1.965h3.367l-.396 2.5h-3.368l-.323 2.033h3.542l-.396 2.5h-6.506zm-37.279 0h6.506l-.397 2.5h-3.542l-.312 1.965h3.368l-.397 2.5H18.75l-.323 2.033h3.542l-.396 2.5h-6.506zm23.74 0h6.578l-.396 2.5h-3.616l-.316 1.965h3.29l-.398 2.5h-3.289l-.72 4.533h-2.957z"/><g transform="translate(60.305 11.55)"><mask id="b" fill="#fff"><use xlink:href="#a"/></mask><path fill="#3956A6" d="M4.68 2.747h.611c2.265 0 3.15 1.598 2.907 3.139-.33 2.068-1.815 3.36-3.758 3.36h-.792l1.031-6.499zM2.112.247h3.861c4.6 0 5.65 3.48 5.289 5.752-.516 3.247-3.41 5.746-7.113 5.746H.29L2.113.247z" mask="url(#b)"/></g><path fill="#3956A6" d="M3 10.23h5.481l.651 8.354C12.76 12.306 16.445 6.266 20.158.334h1.787c-3.93 7.58-7.811 15.209-11.57 22.96H6.351l-.98-9.21C5.126 11.796 4.664 10.825 3 10.58v-.35z"/><path fill="#F7971D" d="M5.075 5.48L9.75 7.463l.406 5.204h.345l4.242-7.182v-.36H5.074z"/><path fill="#3956A6" d="M24.288 25.998h1.917l-.646 4.532c.548-.529 1.218-.856 1.966-.856 1.539 0 2.548 1.482 2.276 3.313-.272 1.83-1.723 3.313-3.261 3.313-.759 0-1.302-.342-1.673-.916l-.102.718h-1.918l1.44-10.104zm2.393 5.532c.709 0 1.19.65 1.075 1.45-.114.8-.782 1.449-1.49 1.449-.709 0-1.19-.65-1.075-1.45.114-.8.782-1.45 1.49-1.45z"/><g transform="translate(29.32 29.54)"><mask id="d" fill="#fff"><use xlink:href="#c"/></mask><path fill="#3956A6" d="M.645.288h2.302L3.976 3.5 5.975.288h2.224L2.362 9.662H.14L2.6 5.709z" mask="url(#d)"/></g><path fill="#3956A6" d="M48.954 36.1l1.686-10.105h2.757L51.712 36.1zm-2.305-10.126c-.95 2.238-1.762 4.616-2.74 6.825l-.288-1.325c0-.005-.004-.011-.005-.016l.05.235c-.213-.697-.575-1.355-1.037-1.958l-.037-.047a8.366 8.366 0 0 0-.416-.489 10.047 10.047 0 0 0-2.331-1.86l2.451 8.738h2.956c1.39-3.41 2.892-6.708 4.299-10.103h-2.902z"/><path fill="#F7971D" d="M41.444 25.976h-4.508v.22c2.595.506 5.871 2.683 6.729 5.497l-.967-4.706c-.133-.725-.638-1.011-1.254-1.011"/><path fill="#3956A6" d="M66.873 28.773L65.47 32.53h2.27l-.866-3.757zm4.185 7.358h-2.526c-.164-.482-.209-1.081-.376-1.559h-3.44l-.644 1.559H61.17l3.761-8.652c.167-.38.465-.898.592-1.128.19-.35.93-.377 1.245-.377h2.086l2.204 10.157z"/></g></svg>